<?xml version="1.0" encoding="UTF-8" standalone="no"?>
<!-- Created with Inkscape (http://www.inkscape.org/) -->

<svg
   version="1.1"
   id="svg2"
   width="120.94667"
   height="120.94667"
   viewBox="0 0 120.94667 120.94667"
   sodipodi:docname="roma_logo_mit_zusatz_de_4c.eps"
   xmlns:inkscape="http://www.inkscape.org/namespaces/inkscape"
   xmlns:sodipodi="http://sodipodi.sourceforge.net/DTD/sodipodi-0.dtd"
   xmlns="http://www.w3.org/2000/svg"
   xmlns:svg="http://www.w3.org/2000/svg">
  <defs
     id="defs6" />
  <sodipodi:namedview
     id="namedview4"
     pagecolor="#ffffff"
     bordercolor="#000000"
     borderopacity="0.25"
     inkscape:showpageshadow="2"
     inkscape:pageopacity="0.0"
     inkscape:pagecheckerboard="0"
     inkscape:deskcolor="#d1d1d1" />
  <g
     id="g8"
     inkscape:groupmode="layer"
     inkscape:label="ink_ext_XXXXXX"
     transform="matrix(1.3333333,0,0,-1.3333333,0,120.94667)">
    <g
       id="g10"
       transform="scale(0.1)">
      <path
         d="M 907.09,510.246 H 0 V 907.09 H 907.09 V 510.246"
         style="fill:#df701a;fill-opacity:1;fill-rule:nonzero;stroke:none"
         id="path12" />
      <path
         d="M 0,0 H 907.09 V 496.066 H 0 V 0"
         style="fill:#514e56;fill-opacity:1;fill-rule:nonzero;stroke:none"
         id="path14" />
      <path
         d="m 194.762,679.289 v 50.184 c 0,23.281 8.109,42.715 24.238,57.402 15.391,14.004 34.883,21.008 57.621,21.008 22.567,0 41.938,-7.004 57.34,-20.996 16.32,-14.68 24.531,-34.114 24.531,-57.414 v -50.184 c 0,-23.293 -8.211,-42.746 -24.543,-57.422 -15.211,-13.808 -34.597,-20.695 -57.328,-20.695 -22.898,0 -42.387,6.875 -57.613,20.703 -16.149,14.504 -24.246,33.957 -24.246,57.414 m 45.906,47.109 v -44.023 c 0,-14.395 3.762,-24.609 10.383,-31.113 5.769,-5.852 14.187,-9.102 25.57,-9.102 11.402,0 19.809,3.25 25.563,9.07 6.64,6.536 10.398,16.758 10.398,31.145 v 44.023 c 0,14.168 -3.73,24.422 -10.41,31.141 -6,6.055 -14.422,9.348 -25.551,9.348 -11.117,0 -19.543,-3.293 -25.531,-9.336 -6.68,-6.731 -10.422,-16.973 -10.422,-31.153"
         style="fill:#ffffff;fill-opacity:1;fill-rule:nonzero;stroke:none"
         id="path16" />
      <path
         d="m 485.078,732.578 c 0,21.652 -8.058,34.192 -26.816,34.192 -18.141,0 -26.813,-15.528 -26.813,-37.454 l -0.008,-126.199 h -45.91 v 126.199 c 0,54.075 39.18,78.399 72.731,78.399 25.273,0 40.097,-10.86 49.676,-21.699 9.574,10.839 24.386,21.699 49.679,21.699 33.543,0 72.727,-24.324 72.727,-78.399 V 603.117 h -45.91 v 126.199 c 0,21.926 -8.68,37.454 -26.817,37.454 -18.769,0 -26.816,-12.54 -26.816,-34.192 l 0.012,-129.285 h -45.754 l 0.019,129.285"
         style="fill:#ffffff;fill-opacity:1;fill-rule:nonzero;stroke:none"
         id="path18" />
      <path
         d="m 657.637,729.492 c 0,47.063 35.664,78.223 81.867,78.223 46.199,0 81.863,-31.348 81.863,-78.399 V 603.117 h -45.918 v 123.106 c 0,29.031 -15.625,40.547 -35.945,40.547 -20.332,0 -35.949,-11.348 -35.949,-40.364 l -0.02,-43.933 c 0,-29.016 15.613,-40.364 35.957,-40.364 l 13.836,0.071 v -41.008 h -13.824 c -46.203,0 -81.867,31.152 -81.867,78.223 v 50.097"
         style="fill:#ffffff;fill-opacity:1;fill-rule:nonzero;stroke:none"
         id="path20" />
      <path
         d="m 166.273,807.707 v -0.012 c -45.902,-0.293 -81.23,-31.55 -81.23,-78.379 V 603.117 h 45.898 v 123.106 c 0,29.031 15.629,40.535 36.079,40.535 h 13.484 v 40.949 h -14.231"
         style="fill:#ffffff;fill-opacity:1;fill-rule:nonzero;stroke:none"
         id="path22" />
      <path
         d="m 96.2109,314.789 h 12.9101 c 5.258,0 8.109,2.246 8.109,7.656 0,5.176 -2.851,7.434 -8.109,7.434 H 96.2109 Z m -11.789,24.25 h 28.9021 c 9.61,0 15.696,-6.68 15.696,-14.797 0,-6.297 -2.555,-11.031 -8.489,-13.437 v -0.145 c 5.782,-1.504 7.434,-7.129 7.809,-12.539 0.223,-3.379 0.152,-9.687 2.25,-12.687 h -11.781 c -1.43,3.379 -1.282,8.554 -1.879,12.843 -0.825,5.625 -3.004,8.106 -8.934,8.106 H 96.2109 v -20.949 h -11.789 v 53.605"
         style="fill:#ffffff;fill-opacity:1;fill-rule:nonzero;stroke:none"
         id="path24" />
      <path
         d="m 167.094,294.066 c 10.586,0 14.566,9.016 14.566,17.942 0,9.383 -3.98,18.398 -14.566,18.398 -10.586,0 -14.567,-9.015 -14.567,-18.398 0,-8.926 3.981,-17.942 14.567,-17.942 z m 0,46.25 c 16.594,0 26.347,-12.39 26.347,-28.308 0,-15.461 -9.753,-27.852 -26.347,-27.852 -16.59,0 -26.352,12.391 -26.352,27.852 0,15.918 9.762,28.308 26.352,28.308"
         style="fill:#ffffff;fill-opacity:1;fill-rule:nonzero;stroke:none"
         id="path26" />
      <path
         d="m 205.852,339.039 h 11.785 v -43.691 h 26.125 v -9.914 h -37.91 v 53.605"
         style="fill:#ffffff;fill-opacity:1;fill-rule:nonzero;stroke:none"
         id="path28" />
      <path
         d="m 254.82,339.039 h 11.785 v -43.691 h 26.125 v -9.914 h -37.91 v 53.605"
         style="fill:#ffffff;fill-opacity:1;fill-rule:nonzero;stroke:none"
         id="path30" />
      <path
         d="m 303.793,339.039 h 11.789 v -43.691 h 26.121 v -9.914 h -37.91 v 53.605"
         style="fill:#ffffff;fill-opacity:1;fill-rule:nonzero;stroke:none"
         id="path32" />
      <path
         d="m 366.277,306.156 h 13.895 l -6.758,19.668 h -0.152 z m 1.129,32.883 h 12.086 l 20.043,-53.605 h -12.234 l -4.055,11.933 H 363.203 L 359,285.434 h -11.937 l 20.343,53.605"
         style="fill:#ffffff;fill-opacity:1;fill-rule:nonzero;stroke:none"
         id="path34" />
      <path
         d="m 420.43,295.348 h 10.508 c 6.832,0 13.363,4.199 13.363,16.062 0,10.813 -3.754,17.719 -15.461,17.719 h -8.41 z m -11.785,43.691 h 23.117 c 13.89,0 24.328,-8.711 24.328,-26.504 0,-15.539 -7.961,-27.101 -24.328,-27.101 h -23.117 v 53.605"
         style="fill:#ffffff;fill-opacity:1;fill-rule:nonzero;stroke:none"
         id="path36" />
      <path
         d="m 468.723,339.039 h 40.086 v -9.91 h -28.301 v -11.488 h 25.976 v -9.161 h -25.976 v -13.132 h 28.906 v -9.914 h -40.691 v 53.605"
         style="fill:#ffffff;fill-opacity:1;fill-rule:nonzero;stroke:none"
         id="path38" />
      <path
         d="m 521.738,339.039 h 11.719 l 22.363,-35.957 h 0.157 v 35.957 h 11.035 v -53.605 h -11.785 l -22.297,35.89 h -0.157 v -35.89 h -11.035 v 53.605"
         style="fill:#ffffff;fill-opacity:1;fill-rule:nonzero;stroke:none"
         id="path40" />
      <path
         d="m 96.2109,214.809 h 12.9101 c 5.258,0 8.109,2.246 8.109,7.656 0,5.176 -2.851,7.433 -8.109,7.433 H 96.2109 Z m -11.789,24.25 h 28.9021 c 9.61,0 15.696,-6.68 15.696,-14.797 0,-6.297 -2.555,-11.035 -8.489,-13.438 v -0.144 c 5.782,-1.504 7.434,-7.129 7.809,-12.539 0.223,-3.379 0.152,-9.688 2.25,-12.688 h -11.781 c -1.43,3.383 -1.282,8.555 -1.879,12.844 -0.825,5.625 -3.004,8.105 -8.934,8.105 H 96.2109 v -20.949 h -11.789 v 53.606"
         style="fill:#ffffff;fill-opacity:1;fill-rule:nonzero;stroke:none"
         id="path42" />
      <path
         d="m 151.035,206.176 h 13.891 l -6.758,19.668 h -0.148 z m 1.129,32.883 h 12.082 l 20.047,-53.606 h -12.238 l -4.051,11.934 h -20.043 l -4.207,-11.934 h -11.938 l 20.348,53.606"
         style="fill:#ffffff;fill-opacity:1;fill-rule:nonzero;stroke:none"
         id="path44" />
      <path
         d="m 187.848,239.059 h 37.683 v -9.914 h -25.898 v -12.383 h 22.445 v -9.16 h -22.445 v -22.149 h -11.785 v 53.606"
         style="fill:#ffffff;fill-opacity:1;fill-rule:nonzero;stroke:none"
         id="path46" />
      <path
         d="m 231.27,239.059 h 37.683 v -9.914 h -25.894 v -12.383 h 22.445 v -9.16 H 243.059 V 185.453 H 231.27 v 53.606"
         style="fill:#ffffff;fill-opacity:1;fill-rule:nonzero;stroke:none"
         id="path48" />
      <path
         d="m 282.73,203.246 c 0,-7.129 5.555,-9.91 11.86,-9.91 4.133,0 10.433,1.199 10.433,6.68 0,5.781 -8.031,6.757 -15.914,8.867 -7.957,2.097 -15.988,5.176 -15.988,15.234 0,10.957 10.359,16.223 20.043,16.223 11.188,0 21.469,-4.887 21.469,-17.277 h -11.41 c -0.375,6.464 -4.953,8.113 -10.582,8.113 -3.754,0 -8.11,-1.582 -8.11,-6.082 0,-4.129 2.555,-4.66 15.992,-8.106 3.903,-0.976 15.915,-3.457 15.915,-15.617 0,-9.832 -7.731,-17.195 -22.297,-17.195 -11.86,0 -22.973,5.859 -22.825,19.07 h 11.414"
         style="fill:#ffffff;fill-opacity:1;fill-rule:nonzero;stroke:none"
         id="path50" />
      <path
         d="m 334.18,229.145 h -16.067 v 9.914 h 43.918 v -9.914 H 345.969 V 185.453 H 334.18 v 43.692"
         style="fill:#ffffff;fill-opacity:1;fill-rule:nonzero;stroke:none"
         id="path52" />
      <path
         d="m 391.117,194.09 c 10.586,0 14.567,9.012 14.567,17.937 0,9.383 -3.981,18.399 -14.567,18.399 -10.586,0 -14.562,-9.016 -14.562,-18.399 0,-8.925 3.976,-17.937 14.562,-17.937 z m 0,46.25 c 16.594,0 26.348,-12.395 26.348,-28.313 0,-15.461 -9.754,-27.851 -26.348,-27.851 -16.59,0 -26.351,12.39 -26.351,27.851 0,15.918 9.761,28.313 26.351,28.313"
         style="fill:#ffffff;fill-opacity:1;fill-rule:nonzero;stroke:none"
         id="path54" />
      <path
         d="m 437.23,214.809 h 12.911 c 5.254,0 8.113,2.246 8.113,7.656 0,5.176 -2.859,7.433 -8.113,7.433 H 437.23 Z m -11.785,24.25 h 28.903 c 9.605,0 15.691,-6.68 15.691,-14.797 0,-6.297 -2.559,-11.035 -8.484,-13.438 v -0.144 c 5.781,-1.504 7.429,-7.129 7.8,-12.539 0.235,-3.379 0.157,-9.688 2.266,-12.688 h -11.793 c -1.426,3.383 -1.277,8.555 -1.879,12.844 -0.824,5.625 -3.004,8.105 -8.929,8.105 h -11.79 v -20.949 h -11.785 v 53.606"
         style="fill:#ffffff;fill-opacity:1;fill-rule:nonzero;stroke:none"
         id="path56" />
      <path
         d="m 479.59,239.059 h 40.098 v -9.914 H 491.387 V 217.66 h 25.976 v -9.156 h -25.976 v -13.137 h 28.894 v -9.914 H 479.59 v 53.606"
         style="fill:#ffffff;fill-opacity:1;fill-rule:nonzero;stroke:none"
         id="path58" />
      <path
         d="m 528.191,239.059 h 11.711 l 22.371,-35.957 h 0.149 v 35.957 h 11.035 V 185.453 H 561.68 l -22.305,35.891 h -0.145 v -35.891 h -11.039 v 53.606"
         style="fill:#ffffff;fill-opacity:1;fill-rule:nonzero;stroke:none"
         id="path60" />
      <path
         d="M 96.2852,129.176 H 80.2188 v 9.914 h 43.9182 v -9.914 H 108.07 V 85.4844 H 96.2852 v 43.6916"
         style="fill:#ffffff;fill-opacity:1;fill-rule:nonzero;stroke:none"
         id="path62" />
      <path
         d="m 130.25,139.09 h 40.086 v -9.914 h -28.301 v -11.485 h 25.977 v -9.16 H 142.035 V 95.3945 h 28.903 V 85.4844 H 130.25 V 139.09"
         style="fill:#ffffff;fill-opacity:1;fill-rule:nonzero;stroke:none"
         id="path64" />
      <path
         d="m 191.988,113.559 -17.269,25.531 h 13.664 l 10.508,-17.121 10.882,17.121 h 12.918 L 205.496,113.48 224.188,85.4844 H 210.152 L 198.441,104.027 186.504,85.4844 h -13.285 l 18.769,28.0746"
         style="fill:#ffffff;fill-opacity:1;fill-rule:nonzero;stroke:none"
         id="path66" />
      <path
         d="m 240.73,129.176 h -16.062 v 9.914 h 43.918 v -9.914 H 252.52 V 85.4844 h -11.79 v 43.6916"
         style="fill:#ffffff;fill-opacity:1;fill-rule:nonzero;stroke:none"
         id="path68" />
      <path
         d="m 274.695,139.09 h 11.789 V 85.4844 H 274.695 V 139.09"
         style="fill:#ffffff;fill-opacity:1;fill-rule:nonzero;stroke:none"
         id="path70" />
      <path
         d="m 296.82,139.09 h 11.789 V 95.3945 H 334.73 V 85.4844 H 296.82 V 139.09"
         style="fill:#ffffff;fill-opacity:1;fill-rule:nonzero;stroke:none"
         id="path72" />
      <path
         d="m 349.324,103.277 c 0,-7.1286 5.559,-9.9137 11.864,-9.9137 4.128,0 10.433,1.2031 10.433,6.6837 0,5.777 -8.031,6.754 -15.914,8.855 -7.957,2.11 -15.988,5.188 -15.988,15.243 0,10.957 10.359,16.222 20.043,16.222 11.183,0 21.468,-4.883 21.468,-17.277 h -11.41 c -0.371,6.465 -4.953,8.117 -10.586,8.117 -3.75,0 -8.105,-1.582 -8.105,-6.086 0,-4.129 2.555,-4.656 15.988,-8.105 3.903,-0.973 15.914,-3.457 15.914,-15.614 0,-9.8356 -7.726,-17.1989 -22.293,-17.1989 -11.859,0 -22.972,5.8594 -22.824,19.0739 h 11.41"
         style="fill:#ffffff;fill-opacity:1;fill-rule:nonzero;stroke:none"
         id="path74" />
      <path
         d="m 425.703,121.07 c -0.746,5.332 -5.855,9.383 -11.711,9.383 -10.586,0 -14.562,-9.012 -14.562,-18.398 0,-8.926 3.976,-17.9378 14.562,-17.9378 7.207,0 11.262,4.9492 12.164,12.0118 h 11.41 c -1.199,-13.3595 -10.433,-21.9259 -23.574,-21.9259 -16.59,0 -26.351,12.3946 -26.351,27.8519 0,15.918 9.761,28.312 26.351,28.312 11.789,0 21.696,-6.914 23.121,-19.297 h -11.41"
         style="fill:#ffffff;fill-opacity:1;fill-rule:nonzero;stroke:none"
         id="path76" />
      <path
         d="m 457.328,114.84 h 12.906 c 5.254,0 8.118,2.246 8.118,7.656 0,5.176 -2.864,7.43 -8.118,7.43 h -12.906 z m -11.785,24.25 h 28.898 c 9.614,0 15.696,-6.684 15.696,-14.797 0,-6.301 -2.559,-11.035 -8.489,-13.438 v -0.144 c 5.786,-1.508 7.434,-7.133 7.805,-12.5391 0.235,-3.3789 0.156,-9.6797 2.266,-12.6875 h -11.797 c -1.426,3.3789 -1.27,8.5547 -1.875,12.8398 -0.82,5.6248 -3.008,8.1058 -8.926,8.1058 H 457.328 V 85.4844 H 445.543 V 139.09"
         style="fill:#ffffff;fill-opacity:1;fill-rule:nonzero;stroke:none"
         id="path78" />
      <path
         d="m 499.688,139.09 h 40.097 v -9.914 h -28.301 v -11.485 h 25.977 v -9.16 H 511.484 V 95.3945 h 28.899 V 85.4844 H 499.688 V 139.09"
         style="fill:#ffffff;fill-opacity:1;fill-rule:nonzero;stroke:none"
         id="path80" />
      <path
         d="m 548.293,139.09 h 40.086 v -9.914 h -28.301 v -11.485 h 25.977 v -9.16 H 560.078 V 95.3945 h 28.906 V 85.4844 H 548.293 V 139.09"
         style="fill:#ffffff;fill-opacity:1;fill-rule:nonzero;stroke:none"
         id="path82" />
      <path
         d="m 596.895,139.09 h 11.71 l 22.372,-35.961 h 0.156 v 35.961 h 11.035 V 85.4844 H 630.371 L 608.086,121.371 H 607.93 V 85.4844 H 596.895 V 139.09"
         style="fill:#ffffff;fill-opacity:1;fill-rule:nonzero;stroke:none"
         id="path84" />
      <path
         d="m 660.496,103.277 c 0,-7.1286 5.559,-9.9137 11.867,-9.9137 4.121,0 10.43,1.2031 10.43,6.6837 0,5.777 -8.027,6.754 -15.918,8.855 -7.949,2.11 -15.984,5.188 -15.984,15.243 0,10.957 10.359,16.222 20.047,16.222 11.179,0 21.464,-4.883 21.464,-17.277 h -11.406 c -0.371,6.465 -4.961,8.117 -10.586,8.117 -3.75,0 -8.105,-1.582 -8.105,-6.086 0,-4.129 2.55,-4.656 15.988,-8.105 3.895,-0.973 15.906,-3.457 15.906,-15.614 0,-9.8356 -7.722,-17.1989 -22.285,-17.1989 -11.863,0 -22.976,5.8594 -22.832,19.0739 h 11.414"
         style="fill:#ffffff;fill-opacity:1;fill-rule:nonzero;stroke:none"
         id="path86" />
    </g>
  </g>
</svg>
